<?xml version="1.0" encoding="UTF-8" standalone="no"?>
<svg
   xmlns:dc="http://purl.org/dc/elements/1.1/"
   xmlns:cc="http://creativecommons.org/ns#"
   xmlns:rdf="http://www.w3.org/1999/02/22-rdf-syntax-ns#"
   xmlns:svg="http://www.w3.org/2000/svg"
   xmlns="http://www.w3.org/2000/svg"
   xmlns:sodipodi="http://sodipodi.sourceforge.net/DTD/sodipodi-0.dtd"
   xmlns:inkscape="http://www.inkscape.org/namespaces/inkscape"
   version="1.2"
   width="1052.36"
   height="744.09003"
   id="svg2"
   inkscape:version="0.48.3.1 r9886"
   sodipodi:docname="Wikidata-logo-en.svg">
  <metadata
     id="metadata16">
    <rdf:RDF>
      <cc:Work
         rdf:about="">
        <dc:format>image/svg+xml</dc:format>
        <dc:type
           rdf:resource="http://purl.org/dc/dcmitype/StillImage" />
        <dc:title></dc:title>
      </cc:Work>
    </rdf:RDF>
  </metadata>
  <defs
     id="defs14" />
  <sodipodi:namedview
     pagecolor="#ffffff"
     bordercolor="#666666"
     borderopacity="1"
     objecttolerance="10"
     gridtolerance="10"
     guidetolerance="10"
     inkscape:pageopacity="0"
     inkscape:pageshadow="2"
     inkscape:window-width="1920"
     inkscape:window-height="1176"
     id="namedview12"
     showgrid="false"
     showguides="true"
     inkscape:guide-bbox="true"
     inkscape:zoom="6.7945036"
     inkscape:cx="1588.3414"
     inkscape:cy="278.22817"
     inkscape:window-x="0"
     inkscape:window-y="24"
     inkscape:window-maximized="1"
     inkscape:current-layer="svg2">
    <sodipodi:guide
       orientation="0,1"
       position="1868.5692,242.54899"
       id="guide3122" />
    <sodipodi:guide
       orientation="0,1"
       position="2075.7955,188.38757"
       id="guide3124" />
    <sodipodi:guide
       orientation="0,1"
       position="1625.2676,282.86337"
       id="guide3962" />
    <sodipodi:guide
       orientation="0,1"
       position="1621.6251,304.14577"
       id="guide3964" />
  </sodipodi:namedview>
  <path
     d="m 119.4207,543.01679 h 29.16277 V 43.052497 H 119.4207 V 543.01679 z m 60.27256,0 h 89.42926 V 43.052497 H 179.69326 V 543.01679 z M 298.29136,43.052497 V 542.99895 h 89.42926 V 43.052497 h -89.42926 z"
     style="fill:#990000"
     id="path4" />
  <path
     d="m 838.97933,543.0524 h 29.16883 V 43.052437 H 838.97933 V 543.0524 z M 899.25795,43.052437 V 543.0524 h 29.16277 V 43.052437 H 899.25795 z M 417.85387,543.05247 h 29.16277 V 43.052497 H 417.85387 V 543.05247 z M 478.13249,43.052497 V 543.03463 h 29.16884 V 43.052497 h -29.16884 z"
     style="fill:#339966"
     id="path6" />
  <path
     d="m 537.42244,543.05247 h 89.4414 V 43.052497 h -89.4414 V 543.05247 z m 118.5981,0 h 31.10372 V 43.052497 H 656.02054 V 543.05247 z M 716.2931,43.052497 V 543.03463 h 89.42926 V 43.052497 H 716.2931 z"
     style="fill:#006699"
     id="path8" />
  <path
     d="m 883.98859,598.08811 46.01562,103.68359 -27.75781,0 -8.53516,-20.48438 -46.38672,0 -7.71875,20.48438 -27.38672,0 41.78516,-103.68359 29.98438,0 m 2.07812,65.08984 -16.69922,-40.30078 -15.21484,40.30078 31.91406,0 m -60.26562,-65.08984 0,19 -37.55469,0 0,84.68359 -25.82813,0 0,-84.68359 -37.55468,0 0,-19 100.9375,0 m -133.59375,0 46.01562,103.68359 -27.75781,0 -8.53516,-20.48438 -46.38672,0 -7.71875,20.48438 -27.38672,0 41.78516,-103.68359 29.98438,0 m 2.07812,65.08984 -16.69922,-40.30078 -15.21484,40.30078 31.91406,0 m -176.56641,-65.08984 45.71875,0 c 17.66399,10e-5 31.6171,4.84905 41.85938,14.54687 10.29156,9.64852 15.43739,22.142 15.4375,37.48047 -1.1e-4,16.08076 -5.22016,28.72268 -15.66016,37.92578 -10.39071,9.15365 -25.23444,13.73047 -44.53125,13.73047 l -42.82422,0 0,-103.68359 m 25.82813,19 0,65.68359 16.84766,0 c 10.93483,2e-5 19.2968,-2.99347 25.08593,-8.98047 5.78898,-6.03642 8.68351,-13.97782 8.6836,-23.82422 -9e-5,-10.19264 -2.9441,-18.20826 -8.83203,-24.04687 -5.83862,-5.88794 -14.25007,-8.83195 -25.23438,-8.83203 l -16.55078,0 m -49.72656,-19 0,103.68359 -25.82813,0 0,-103.68359 25.82813,0 m -48.91016,0 -33.76953,48.6875 45.79297,54.99609 -32.35938,0 -41.04297,-48.61328 0,48.61328 -25.82812,0 0,-103.68359 25.82812,0 0,46.68359 32.95313,-46.68359 28.42578,0 m -111.10547,0 0,103.68359 -25.82812,0 0,-103.68359 25.82812,0 m -127.21094,37.40625 -32.0625,67.61328 -11.13281,0 -45.57031,-105.01953 27.38672,0 24.41797,57.29687 26.64453,-57.29687 20.78125,0 26.64453,57.29687 24.26953,-57.29687 27.38672,0 -45.42188,105.01953 -11.13281,0 -32.21094,-67.61328"
     style="fill:#484848;fill-opacity:1;stroke:none;font-family:Gill Sans MT"
     id="path10" />
  <text
     xml:space="preserve"
     style="font-size:143.92709351px;font-style:normal;font-variant:normal;font-weight:500;font-stretch:normal;line-height:125%;letter-spacing:0px;word-spacing:0px;fill:#484848;fill-opacity:1;stroke:none;font-family:KacstPoster;-inkscape-font-specification:KacstPoster Medium"
     x="-15.171109"
     y="1124.5817"
     id="text2993-1"
     sodipodi:linespacing="125%"><tspan
       sodipodi:role="line"
       id="tspan2995-6"
       x="-15.171109"
       y="1124.5817"
       style="font-weight:bold;fill:#484848;fill-opacity:1;-inkscape-font-specification:KacstPoster Bold">IDEM</tspan></text>
  <text
     xml:space="preserve"
     style="font-size:143.92709351px;font-style:normal;font-variant:normal;font-weight:500;font-stretch:normal;line-height:125%;letter-spacing:0px;word-spacing:0px;fill:#484848;fill-opacity:1;stroke:none;font-family:KacstPoster;-inkscape-font-specification:KacstPoster Medium"
     x="1989.6412"
     y="660.98682"
     id="text2993-7"
     sodipodi:linespacing="125%"><tspan
       sodipodi:role="line"
       id="tspan2995-7"
       x="1989.6412"
       y="660.98682"
       style="font-weight:bold;fill:#484848;fill-opacity:1;-inkscape-font-specification:KacstPoster Bold">PROPERTY</tspan></text>
  <text
     xml:space="preserve"
     style="font-size:143.92709351px;font-style:normal;font-variant:normal;font-weight:500;font-stretch:normal;line-height:125%;letter-spacing:0px;word-spacing:0px;fill:#484848;fill-opacity:1;stroke:none;font-family:KacstPoster;-inkscape-font-specification:KacstPoster Medium"
     x="1600.3512"
     y="1318.3315"
     id="text2993-1-8"
     sodipodi:linespacing="125%"><tspan
       sodipodi:role="line"
       id="tspan2995-6-2"
       x="1600.3512"
       y="1318.3315"
       style="font-weight:bold;fill:#484848;fill-opacity:1;-inkscape-font-specification:KacstPoster Bold"><tspan
   style="font-size:143.92709351px;font-style:normal;font-variant:normal;font-weight:bold;font-stretch:normal;text-align:start;line-height:125%;writing-mode:lr-tb;text-anchor:start;font-family:KacstPoster;-inkscape-font-specification:KacstPoster Bold"
   id="tspan3064">WIKIDATA</tspan> VALUE</tspan></text>
  <path
     inkscape:connector-curvature="0"
     d="m 1685.8451,431.57613 h 8.0731 v -19.99765 h -8.0731 v 19.99765 z m 10.7049,0 h 2.8075 v -19.99765 h -2.8075 v 19.99765 z m 5.4404,-19.99765 v 19.99695 h 8.072 v -19.99695 h -8.072 z"
     style="fill:#006699"
     id="path8-3" />
  <path
     inkscape:connector-curvature="0"
     d="m 1537.2886,461.22666 h 6.0843 v -21.2824 h -6.0843 v 21.2824 z m 12.5734,-21.2824 v 21.2824 h 6.0829 v -21.2824 h -6.0829 z m -100.4146,21.2824 h 6.0829 v -21.2824 h -6.0829 v 21.2824 z m 12.5733,-21.2824 v 21.28164 h 6.0843 v -21.28164 h -6.0843 z"
     style="fill:#339966"
     id="path6-0" />
  <text
     xml:space="preserve"
     style="font-size:9.7302742px;font-style:normal;font-variant:normal;font-weight:500;font-stretch:normal;line-height:125%;letter-spacing:0px;word-spacing:0px;fill:#484848;fill-opacity:1;stroke:none;font-family:KacstPoster;-inkscape-font-specification:KacstPoster Medium"
     x="1589.1584"
     y="529.75586"
     id="text2993"
     sodipodi:linespacing="125%"
     inkscape:export-filename="/home/malt/source/dm4-wikidata/src/main/resources/web/images/rect3126.png"
     inkscape:export-xdpi="85.330002"
     inkscape:export-ydpi="85.330002"><tspan
       dx="0.0027042232"
       sodipodi:role="line"
       id="tspan2995"
       x="1589.1584"
       y="529.75586"
       style="font-weight:bold;letter-spacing:0.5px;fill:#484848;fill-opacity:1;-inkscape-font-specification:KacstPoster Bold">ITEM</tspan></text>
  <path
     inkscape:connector-curvature="0"
     d="m 1589.3384,461.21445 h 2.9154 v -21.20579 h -2.9154 v 21.20579 z m 6.0255,0 h 8.9402 v -21.20579 h -8.9402 v 21.20579 z m 11.8563,-21.20579 v 21.20503 h 8.9402 v -21.20503 h -8.9402 z"
     style="fill:#990000"
     id="path4-5"
     inkscape:export-filename="/home/malt/source/dm4-wikidata/src/main/resources/web/images/rect3228.png"
     inkscape:export-xdpi="89.760002"
     inkscape:export-ydpi="89.760002" />
  <rect
     style="color:#000000;fill:none;stroke:none;stroke-width:5;marker:none;visibility:visible;display:inline;overflow:visible;enable-background:accumulate"
     id="rect3126"
     width="33.75053"
     height="28.258112"
     x="1585.7756"
     y="503.54105"
     inkscape:export-xdpi="85.330002"
     inkscape:export-ydpi="85.330002" />
  <text
     xml:space="preserve"
     style="font-size:9.7302742px;font-style:normal;font-variant:normal;font-weight:500;font-stretch:normal;line-height:125%;letter-spacing:0px;word-spacing:0px;fill:#484848;fill-opacity:1;stroke:none;font-family:KacstPoster;-inkscape-font-specification:KacstPoster Medium"
     x="1649.3812"
     y="530.4856"
     id="text2993-6"
     sodipodi:linespacing="125%"><tspan
       dx="0.0027042232"
       sodipodi:role="line"
       id="tspan2995-5"
       x="1649.3812"
       y="530.4856"
       style="font-weight:bold;letter-spacing:0.5px;fill:#484848;fill-opacity:1;-inkscape-font-specification:KacstPoster Bold">ITEM</tspan></text>
  <path
     inkscape:connector-curvature="0"
     d="m 1654.7624,516.99824 h 1.9715 v -10.16029 h -1.9715 v 10.16029 z m 4.0747,0 h 6.0459 v -10.16029 h -6.0459 v 10.16029 z m 8.0179,-10.16029 v 10.15993 h 6.0459 v -10.15993 h -6.0459 z"
     style="fill:#990000"
     id="path4-5-8" />
  <rect
     style="color:#000000;fill:none;stroke:none;stroke-width:5;marker:none;visibility:visible;display:inline;overflow:visible;enable-background:accumulate"
     id="rect3126-6"
     width="33.75053"
     height="28.258112"
     x="1645.9618"
     y="501.86606" />
  <rect
     style="color:#000000;fill:none;stroke:none;stroke-width:5;marker:none;visibility:visible;display:inline;overflow:visible;enable-background:accumulate"
     id="rect3937"
     width="32.084755"
     height="28"
     x="1586.2822"
     y="436.89377"
     inkscape:export-filename="/home/malt/source/dm4-wikidata/src/main/resources/web/images/rect3228.png"
     inkscape:export-xdpi="89.760002"
     inkscape:export-ydpi="89.760002" />
  <rect
     style="color:#000000;fill:none;stroke:none;stroke-width:5;marker:none;visibility:visible;display:inline;overflow:visible;enable-background:accumulate"
     id="rect3939"
     width="32.231934"
     height="28.55249"
     x="1681.359"
     y="407.20007" />
  <path
     inkscape:connector-curvature="0"
     d="m 1638.9321,461.22666 h 8.5917 v -21.2824 h -8.5917 v 21.2824 z m 11.3926,0 h 2.9879 v -21.2824 h -2.9879 v 21.2824 z m 5.7899,-21.2824 v 21.28165 h 8.5906 v -21.28165 h -8.5906 z"
     style="fill:#006699"
     id="path8-3-0" />
  <rect
     style="color:#000000;fill:none;stroke:none;stroke-width:5;marker:none;visibility:visible;display:inline;overflow:visible;enable-background:accumulate"
     id="rect3939-3"
     width="32.231934"
     height="28.55249"
     x="1636.0017"
     y="436.62479"
     inkscape:export-filename="/home/malt/source/dm4-wikidata/src/main/resources/web/images/rect_p3228.png"
     inkscape:export-xdpi="89.760002"
     inkscape:export-ydpi="89.760002" />
  <rect
     style="color:#000000;fill:none;stroke:none;stroke-width:5;marker:none;visibility:visible;display:inline;overflow:visible;enable-background:accumulate"
     id="rect3939-3-5"
     width="32.231934"
     height="28.55249"
     x="1529.9541"
     y="436.62479"
     inkscape:export-filename="/home/malt/source/dm4-wikidata/src/main/resources/web/images/rect_v3228.png"
     inkscape:export-xdpi="89.760002"
     inkscape:export-ydpi="89.760002" />
</svg>
